<svg id="Capa_1" enable-background="new 0 0 512 512" height="512" viewBox="0 0 512 512" width="512" xmlns="http://www.w3.org/2000/svg"><g><path d="m437.02 74.98c-48.353-48.351-112.64-74.98-181.02-74.98s-132.667 26.629-181.02 74.98c-48.351 48.353-74.98 112.64-74.98 181.02s26.629 132.667 74.98 181.02c48.353 48.351 112.64 74.98 181.02 74.98s132.667-26.629 181.02-74.98c48.351-48.353 74.98-112.64 74.98-181.02s-26.629-132.667-74.98-181.02zm-10.607 351.433c-34.091 34.091-76.596 56.708-122.832 65.917v-164.701h34.338c7.133 0 13.323-4.833 15.053-11.753l12.025-48.097c1.167-4.668.137-9.52-2.824-13.312s-7.418-5.967-12.229-5.967h-53.862c-4.142 0-7.5 3.358-7.5 7.5s3.358 7.5 7.5 7.5h53.862c.075 0 .251 0 .407.199.155.198.112.37.094.443l-12.024 48.097c-.058.23-.264.391-.501.391h-41.838c-4.142 0-7.5 3.358-7.5 7.5v174.684c-10.714 1.437-21.59 2.186-32.582 2.186-64.374 0-124.894-25.068-170.413-70.587s-70.587-106.039-70.587-170.413 25.068-124.894 70.587-170.413 106.039-70.587 170.413-70.587 124.894 25.068 170.413 70.587 70.587 106.039 70.587 170.413-25.068 124.894-70.587 170.413z"/><path d="m352.193 96.193h-48.097c-52.757 0-95.677 42.921-95.677 95.678v56.629h-48.613c-8.556 0-15.516 6.96-15.516 15.516v48.097c0 8.556 6.96 15.516 15.516 15.516h48.613v136.791c0 4.142 3.358 7.5 7.5 7.5s7.5-3.358 7.5-7.5v-144.291c0-4.142-3.358-7.5-7.5-7.5h-56.113c-.285 0-.516-.231-.516-.516v-48.097c0-.285.231-.516.516-.516h56.113c4.142 0 7.5-3.358 7.5-7.5v-64.129c0-44.486 36.192-80.678 80.677-80.678h48.097c.285 0 .516.231.516.516v48.097c0 .285-.231.516-.516.516h-32.064c-17.396 0-31.548 14.152-31.548 31.548v32.064c0 4.142 3.358 7.5 7.5 7.5s7.5-3.358 7.5-7.5v-32.064c0-9.125 7.423-16.548 16.548-16.548h32.064c8.556 0 15.516-6.96 15.516-15.516v-48.097c0-8.555-6.96-15.516-15.516-15.516z"/></g></svg>